<?xml version="1.0" encoding="utf-8"?>
<!-- Generator: Adobe Illustrator 16.0.0, SVG Export Plug-In . SVG Version: 6.00 Build 0)  -->
<!DOCTYPE svg PUBLIC "-//W3C//DTD SVG 1.1//EN" "http://www.w3.org/Graphics/SVG/1.1/DTD/svg11.dtd">
<svg version="1.1" id="Layer_1" xmlns="http://www.w3.org/2000/svg" xmlns:xlink="http://www.w3.org/1999/xlink" x="0px" y="0px"
	 width="150px" height="150px" viewBox="0 0 150 150" enable-background="new 0 0 150 150" xml:space="preserve">
<g>
	<path fill="#382159" d="M136.55,45.827H86.13v-20.57c0-6.147-4.981-11.131-11.13-11.131c-6.147,0-11.131,4.984-11.131,11.131
		v20.572H13.45c-1.904,0-3.45,1.545-3.45,3.451v83.141c0,1.904,1.547,3.453,3.45,3.453h123.1c1.903,0,3.45-1.549,3.45-3.453V49.278
		C139.999,47.373,138.453,45.827,136.55,45.827z M75,19.694c3.073,0,5.565,2.491,5.565,5.563c0,3.074-2.492,5.565-5.565,5.565
		c-3.074,0-5.565-2.492-5.565-5.565C69.435,22.185,71.926,19.694,75,19.694z M55.798,123.429H22.431v-6.327h33.367V123.429z
		 M55.798,106.003H22.431v-6.328h33.367V106.003z M67.301,88.072h-44.87v-6.327h44.87V88.072z M126.408,124.741h-4.862
		c0.286-5.913-2.438-12.125-2.438-12.125c-0.923-2.049-6.55-3.822-6.55-3.822c-3.004-1.058-3.024-2.111-3.024-2.111
		c-5.901,11.629-10.383,0.034-10.383,0.034c-0.414,1.567-6.485,3.409-6.485,3.409c-1.772,0.683-2.525,1.705-2.525,1.705
		c-2.622,3.891-2.928,12.556-2.928,12.556c0,0.134,0.017,0.237,0.025,0.355h-2.681V79.87h41.851V124.741L126.408,124.741z
		 M131.155,66.498c0,1.905-1.55,3.453-3.453,3.453H22.434c-1.904,0-3.454-1.547-3.454-3.453v-6.041c0-1.904,1.549-3.449,3.454-3.449
		H63.87v6.41h22.26v-6.41h41.572c1.902,0,3.453,1.544,3.453,3.449V66.498L131.155,66.498z M97.66,100.536
		c0.455,3.742,3.675,7.614,6.594,7.614c3.354,0,6.546-4.074,7.042-7.614c0.19-0.138,0.498-0.46,0.615-1.199
		c0,0,0.718-2.566-0.238-2.291c0.332-0.987,1.431-4.838-0.695-7.234c0,0-0.995-1.357-3.413-2.08l-1.128-0.389
		c-0.447-0.323-1.344-1.085-1.344-1.933c0,0-0.563,0.26-0.893,0.743c0.132-0.395,0.349-0.763,0.696-1.063
		c0,0-0.366,0.189-0.705,0.603c-0.262,0.149-0.866,0.562-1.065,1.294l0.01-0.047c0,0-0.123-0.165-0.46-0.216
		c-0.332-0.047-0.913,0.175-0.913,0.175s-3.527,1.378-4.547,4.552c0,0-0.61,1.434,0.191,5.649c-1.132-0.537-0.36,2.236-0.36,2.236
		C97.163,100.076,97.477,100.398,97.66,100.536z M104.084,85.834c-0.172,0.236-0.319,0.536-0.388,0.898l-0.127-0.046
		C103.667,86.377,103.83,86.088,104.084,85.834z"/>
</g>
</svg>
